<?xml version="1.0" standalone="no"?>
<!DOCTYPE svg PUBLIC "-//W3C//DTD SVG 20010904//EN"
 "http://www.w3.org/TR/2001/REC-SVG-20010904/DTD/svg10.dtd">
<svg version="1.0" xmlns="http://www.w3.org/2000/svg"
 width="978.000000pt" height="978.000000pt" viewBox="0 0 978.000000 978.000000"
 preserveAspectRatio="xMidYMid meet">
<metadata>
Created by potrace 1.14, written by Peter Selinger 2001-2017
</metadata>
<g transform="translate(0.000000,978.000000) scale(0.100000,-0.100000)"
fill="#000000" stroke="none">
<path d="M0 4890 l0 -4890 4890 0 4890 0 0 4890 0 4890 -4890 0 -4890 0 0
-4890z m5215 4779 c1017 -66 1949 -435 2750 -1088 171 -139 512 -481 652 -654
738 -907 1123 -2028 1089 -3169 -30 -1010 -359 -1961 -954 -2753 -262 -349
-621 -708 -967 -967 -642 -481 -1399 -794 -2190 -907 -247 -35 -394 -45 -685
-45 -292 0 -439 10 -684 45 -1796 259 -3294 1510 -3866 3229 -400 1200 -314
2507 239 3626 249 506 518 880 916 1280 208 208 317 304 520 456 909 682 2049
1022 3180 947z"/>
<path d="M5960 7498 c-14 -6 -38 -17 -55 -24 -89 -39 -207 -168 -264 -289 -13
-27 -27 -58 -32 -67 -5 -10 -9 -38 -9 -63 0 -43 1 -45 28 -45 15 0 32 -4 38
-8 5 -5 29 -14 54 -21 58 -17 141 -48 208 -78 29 -12 55 -23 58 -23 3 0 17 -9
31 -20 14 -11 35 -20 46 -20 11 0 18 -3 14 -6 -3 -4 26 -23 66 -42 40 -20 76
-42 80 -49 4 -7 13 -13 19 -13 5 0 32 -18 58 -40 26 -22 51 -40 54 -40 9 0 62
-47 143 -126 40 -39 75 -69 78 -66 3 3 5 0 5 -7 0 -6 10 -22 23 -35 12 -13 30
-34 41 -46 21 -26 148 -270 141 -270 -3 0 2 -14 10 -31 9 -17 14 -37 11 -45
-4 -10 -2 -12 6 -8 8 5 9 2 5 -9 -3 -10 -2 -17 3 -17 6 0 10 -11 10 -24 0 -14
5 -28 10 -31 6 -3 10 -15 10 -26 0 -10 4 -27 9 -37 8 -15 22 -48 26 -62 14
-54 72 -216 78 -218 4 -2 5 -8 1 -13 -3 -5 0 -9 7 -9 6 0 9 -8 6 -20 -3 -10 0
-21 6 -23 16 -5 44 -215 48 -362 2 -66 -14 -208 -30 -270 -5 -22 -15 -61 -20
-87 -6 -27 -24 -81 -40 -120 -36 -90 -45 -118 -35 -118 17 0 74 25 74 32 0 4
7 8 15 8 9 0 25 9 37 20 12 11 28 20 35 20 7 0 13 4 13 8 0 5 11 14 24 20 14
6 33 18 43 26 10 8 32 26 49 40 18 14 41 45 52 68 15 30 21 37 22 23 1 -11 4
-29 7 -40 20 -75 10 -313 -17 -395 -4 -14 -13 -45 -20 -70 -16 -56 -84 -237
-116 -308 -13 -29 -24 -57 -24 -63 0 -12 -38 -69 -127 -187 -38 -52 -60 -89
-54 -95 5 -5 35 -7 67 -4 113 9 176 28 302 90 113 56 159 97 214 194 l33 58 3
-87 c1 -49 -2 -97 -8 -107 -5 -11 -10 -33 -10 -50 0 -16 -4 -33 -10 -36 -5 -3
-10 -19 -10 -36 0 -16 -4 -29 -10 -29 -5 0 -10 -8 -10 -18 0 -11 -6 -32 -14
-48 -17 -36 -49 -107 -69 -156 -19 -45 -88 -163 -116 -198 -11 -14 -34 -44
-53 -67 -18 -23 -46 -59 -62 -78 -24 -30 -27 -38 -15 -46 20 -12 88 -11 148 3
28 6 54 9 57 6 7 -8 -19 -59 -67 -128 -43 -63 -155 -191 -161 -184 -3 2 -10
-6 -17 -19 -11 -21 -190 -143 -233 -160 -12 -4 -35 -14 -52 -21 -17 -8 -58
-24 -91 -36 -33 -12 -70 -26 -83 -31 -13 -5 -32 -9 -43 -9 -10 0 -27 -4 -37
-9 -28 -15 -162 -41 -231 -45 -35 -2 -66 -7 -70 -12 -3 -5 -33 -27 -66 -49
-33 -22 -66 -46 -73 -52 -7 -7 -17 -13 -20 -13 -4 0 -18 -10 -32 -23 -14 -12
-37 -28 -52 -36 -16 -8 -28 -18 -28 -23 0 -4 -6 -8 -12 -8 -7 0 -24 -9 -38
-20 -14 -11 -33 -20 -42 -20 -10 0 -18 -3 -18 -8 0 -4 -42 -19 -92 -32 -116
-31 -246 -33 -503 -6 -184 19 -323 16 -590 -14 -236 -26 -305 -31 -465 -32
-262 -1 -354 15 -605 102 -98 34 -136 51 -153 67 -8 7 -18 11 -23 8 -5 -4 -9
-1 -9 4 0 6 -8 11 -19 11 -10 0 -30 9 -44 20 -14 11 -30 20 -35 20 -6 0 -12 3
-14 8 -3 7 -18 15 -110 64 -21 11 -38 24 -38 29 0 5 -9 9 -19 9 -11 0 -23 5
-27 11 -5 8 4 9 32 4 60 -12 449 -10 539 3 44 6 112 16 150 22 39 5 91 13 118
16 26 4 50 11 53 15 3 5 18 9 34 9 16 0 39 4 52 9 13 5 41 14 63 21 64 19 95
34 95 46 0 6 -33 21 -72 33 -40 13 -92 32 -115 42 -23 10 -60 24 -82 31 -23 7
-41 16 -41 20 0 5 -7 8 -15 8 -8 0 -23 4 -33 9 -9 5 -39 19 -67 32 -27 13 -51
27 -53 32 -2 4 -12 7 -23 7 -10 0 -19 5 -19 10 0 6 -8 10 -19 10 -10 0 -29 8
-42 19 -13 10 -47 30 -74 43 -63 32 -147 77 -205 112 -25 14 -67 39 -93 54
-52 29 -234 149 -253 166 -7 6 -34 29 -60 51 -182 151 -424 437 -424 501 0 8
-4 14 -9 14 -5 0 -12 12 -15 28 -18 75 -36 169 -36 187 1 17 2 18 10 4 5 -9
23 -53 40 -99 30 -81 87 -187 132 -245 40 -51 174 -179 204 -195 16 -8 31 -17
34 -20 24 -25 236 -111 335 -136 33 -9 76 -20 95 -25 96 -28 160 -33 420 -33
151 0 293 3 315 7 22 4 64 12 93 17 115 22 163 34 172 45 10 12 6 14 -135 81
-44 21 -81 42 -83 46 -2 4 -11 8 -21 8 -9 0 -26 8 -37 18 -10 9 -32 24 -48 32
-16 8 -48 32 -70 53 -22 20 -43 37 -46 37 -3 0 -19 13 -37 28 -17 15 -40 34
-50 42 -10 8 -32 26 -49 40 -17 14 -44 35 -60 47 -79 58 -176 132 -214 163
-32 26 -368 350 -442 427 -65 67 -118 128 -118 134 0 5 -13 22 -28 39 -16 16
-37 47 -48 69 -10 23 -22 41 -25 41 -4 0 -12 15 -20 33 -7 17 -25 51 -41 74
-15 23 -28 45 -28 48 0 4 -8 19 -19 33 -30 44 -69 112 -108 191 -30 61 -38 89
-44 165 -8 111 -14 135 -51 204 -15 30 -28 60 -28 68 0 8 -4 14 -10 14 -5 0
-10 7 -10 15 0 8 -4 15 -10 15 -5 0 -10 9 -10 20 0 11 -4 20 -10 20 -5 0 -10
9 -10 20 0 11 -4 20 -10 20 -5 0 -10 -3 -10 -6 0 -6 54 -126 71 -156 5 -10 9
-25 9 -33 0 -8 5 -15 10 -15 6 0 10 -9 10 -20 0 -11 5 -20 10 -20 6 0 10 -15
10 -33 0 -18 5 -38 11 -44 14 -14 -4 -435 -32 -748 -9 -102 -18 -261 -37 -635
-8 -153 1 -444 16 -545 19 -121 63 -275 108 -373 13 -29 24 -57 24 -62 0 -6 4
-10 9 -10 5 0 11 -8 14 -17 8 -25 39 -75 57 -93 9 -8 27 -31 40 -50 14 -19 34
-44 45 -56 11 -12 32 -34 46 -50 37 -42 128 -124 137 -124 4 0 21 -14 39 -30
18 -17 36 -30 41 -30 5 0 29 -15 53 -33 24 -18 58 -39 74 -47 17 -8 52 -27 78
-42 26 -16 54 -28 62 -28 8 0 15 -3 15 -8 0 -4 15 -13 33 -21 17 -7 51 -22 74
-32 24 -10 49 -19 56 -19 7 0 17 -4 23 -9 5 -4 50 -20 99 -36 50 -15 103 -31
119 -36 16 -5 40 -9 53 -9 13 0 31 -4 41 -9 60 -32 481 -39 667 -12 382 57
573 67 780 42 171 -20 380 -25 429 -11 122 37 256 95 256 112 0 5 6 8 13 8 7
0 23 9 35 20 12 11 26 20 32 20 5 0 10 5 10 10 0 6 5 10 10 10 6 0 20 9 32 20
12 11 28 20 35 20 7 0 13 5 13 10 0 6 7 10 15 10 8 0 36 10 62 21 72 33 84 37
133 48 25 5 61 14 80 20 19 5 67 17 105 26 39 9 78 21 87 26 10 5 27 9 37 9
11 0 23 5 26 10 3 6 15 10 26 10 10 0 27 4 37 9 9 5 28 13 42 19 132 52 246
127 345 228 91 93 115 120 115 134 0 6 4 10 8 10 4 0 23 26 42 58 19 31 37 59
40 62 13 11 100 197 100 212 0 9 4 19 9 22 5 3 12 18 15 33 4 16 11 44 16 63
25 95 32 130 42 190 15 92 14 374 -1 435 -7 28 -16 79 -20 115 -13 99 -26 161
-62 288 -5 20 -15 55 -20 76 -5 21 -23 79 -39 129 -17 49 -30 96 -30 103 0 8
-4 22 -9 32 -5 9 -14 31 -21 47 -7 17 -16 38 -21 47 -5 10 -9 25 -9 33 0 8 -4
23 -9 33 -5 9 -13 28 -18 42 -20 50 -31 75 -41 100 -6 14 -24 63 -41 110 -60
173 -83 236 -92 258 -5 12 -14 34 -20 50 -6 15 -15 35 -20 44 -5 10 -9 25 -9
33 0 8 -4 15 -10 15 -5 0 -10 7 -10 15 0 8 -4 23 -9 33 -5 9 -13 28 -19 42 -5
14 -19 45 -30 70 -12 25 -23 56 -26 70 -13 68 -18 80 -31 80 -8 0 -15 5 -15
10 0 10 -40 98 -106 235 -19 39 -34 76 -34 83 0 6 -4 12 -8 12 -5 0 -14 16
-22 35 -8 19 -17 35 -22 35 -4 0 -8 5 -8 10 0 9 -47 87 -60 100 -3 3 -29 34
-59 70 -66 79 -155 165 -221 216 -28 21 -50 42 -50 46 0 4 -5 8 -12 8 -14 0
-148 90 -148 100 0 4 -10 12 -22 19 l-23 11 23 -6 c12 -3 22 -1 22 5 0 6 -4
11 -10 11 -5 0 -10 5 -10 11 0 8 12 9 38 4 55 -11 67 -9 97 19 15 14 33 26 38
26 7 0 6 5 -1 12 -20 20 -14 26 28 30 22 2 40 0 40 -4 0 -5 11 -8 25 -8 31 0
76 -20 69 -31 -3 -5 -1 -9 5 -9 6 0 18 -16 27 -35 9 -19 20 -35 25 -35 5 0 9
-9 9 -19 0 -11 5 -23 10 -26 6 -3 10 -15 10 -26 0 -10 5 -19 10 -19 6 0 10 -9
10 -19 0 -11 5 -23 10 -26 6 -3 10 -13 10 -21 0 -13 21 -65 53 -132 l11 -24 9
29 c11 38 -1 252 -19 338 -19 89 -29 118 -82 235 -23 51 -109 180 -146 218
-40 42 -148 114 -206 137 -112 43 -224 57 -280 33z m70 -188 c24 -24 25 -33 5
-50 -8 -7 -15 -19 -15 -27 0 -9 -6 -13 -15 -9 -8 3 -19 -3 -25 -13 -7 -15 -21
-19 -60 -19 -50 -1 -50 -1 -49 31 0 27 2 29 9 12 7 -16 9 -13 9 16 1 20 8 42
16 49 8 7 15 9 15 6 0 -4 7 0 16 8 22 22 70 20 94 -4z"/>
<path d="M3035 7385 c-115 -41 -191 -88 -253 -159 -10 -10 -27 -29 -39 -42
-13 -13 -23 -27 -23 -32 0 -4 -8 -17 -18 -28 -28 -30 -82 -150 -118 -262 -76
-235 -71 -555 11 -786 38 -105 97 -180 81 -103 -4 17 -12 66 -18 107 -18 127
6 447 38 497 8 12 14 33 14 46 0 13 7 32 15 43 8 10 15 27 15 36 0 9 14 41 30
71 17 30 30 62 30 70 0 8 7 20 15 27 8 7 15 22 15 34 0 12 9 41 20 64 11 22
20 48 20 57 0 8 5 15 10 15 6 0 13 8 17 18 9 24 76 86 148 136 59 42 120 66
165 66 35 0 133 -37 194 -73 136 -81 182 -122 252 -222 26 -38 58 -80 71 -93
26 -26 77 -39 87 -23 4 6 15 11 24 11 10 0 23 9 30 21 12 18 10 25 -14 57 -81
107 -227 262 -294 312 -18 14 -38 30 -44 35 -30 28 -123 76 -189 99 -101 35
-195 35 -292 1z"/>
<path d="M4905 7100 c-19 -8 -19 -9 -1 -9 28 -1 86 -24 86 -33 0 -4 7 -8 15
-8 8 0 15 -4 15 -10 0 -5 7 -10 15 -10 8 0 15 -4 15 -10 0 -5 5 -10 10 -10 6
0 20 -9 32 -20 12 -11 28 -20 35 -20 7 0 13 -4 13 -10 0 -5 5 -10 10 -10 6 0
66 -34 135 -75 69 -41 128 -75 131 -75 11 0 33 -28 27 -34 -4 -3 -25 -6 -47
-6 -39 0 -102 -29 -118 -54 -24 -36 19 -116 61 -116 17 0 19 5 14 34 -4 29 -1
37 20 50 26 18 63 30 137 47 117 27 138 31 185 37 36 5 51 12 53 25 3 13 -3
17 -27 17 -17 0 -39 4 -49 9 -9 5 -35 14 -57 20 -41 13 -50 16 -120 46 -118
51 -196 89 -275 133 -105 58 -119 68 -117 77 5 21 -156 33 -198 15z"/>
<path d="M4675 7085 c-30 -14 -30 -14 -4 -15 15 0 35 -11 50 -27 20 -23 24
-39 24 -92 0 -43 -4 -66 -12 -68 -7 -3 -13 -10 -13 -17 0 -35 -149 -146 -196
-146 -8 0 -14 -7 -14 -15 0 -12 16 -15 88 -15 118 0 344 -17 413 -31 59 -12
109 -45 109 -73 0 -20 26 -21 46 -2 23 23 16 52 -18 82 -52 43 -95 56 -188 58
-74 1 -85 3 -88 20 -2 10 0 28 6 40 43 94 41 185 -4 232 -6 7 -22 26 -36 43
-22 25 -36 31 -80 36 -35 3 -63 0 -83 -10z"/>
<path d="M5118 7093 c7 -3 16 -2 19 1 4 3 -2 6 -13 5 -11 0 -14 -3 -6 -6z"/>
<path d="M5238 7093 c7 -3 16 -2 19 1 4 3 -2 6 -13 5 -11 0 -14 -3 -6 -6z"/>
<path d="M5335 7080 c3 -5 22 -10 42 -10 45 0 40 6 -10 14 -25 4 -36 2 -32 -4z"/>
<path d="M5440 7060 c0 -6 7 -10 15 -10 8 0 15 2 15 4 0 2 -7 6 -15 10 -8 3
-15 1 -15 -4z"/>
<path d="M3401 6591 c-8 -5 -9 -11 -3 -15 5 -3 12 1 16 9 6 17 6 18 -13 6z"/>
<path d="M3279 6473 c-52 -54 -110 -118 -129 -143 -19 -25 -37 -47 -40 -50 -3
-3 -27 -39 -55 -80 -27 -41 -54 -80 -60 -86 -5 -6 -19 -28 -30 -50 -11 -21
-23 -40 -27 -42 -5 -2 -8 -10 -8 -18 0 -8 -4 -14 -10 -14 -5 0 -10 -6 -10 -13
0 -7 -9 -30 -21 -52 -22 -41 -49 -120 -49 -145 0 -8 17 19 38 60 20 41 39 77
42 80 10 10 41 65 47 83 3 9 9 17 14 17 5 0 9 7 9 15 0 8 5 15 10 15 6 0 10 5
10 11 0 13 183 282 213 314 12 13 49 53 82 90 33 38 66 74 73 81 6 7 12 15 12
18 0 18 -26 -4 -111 -91z"/>
<path d="M5450 6537 c0 -10 11 -19 28 -23 38 -8 149 -61 197 -92 59 -40 72
-51 147 -125 48 -49 68 -76 68 -94 l0 -25 68 7 c104 12 308 6 402 -11 151 -27
150 -27 150 -14 0 33 -144 146 -255 200 -27 14 -51 28 -53 33 -2 4 -10 7 -17
7 -7 0 -46 14 -86 30 -41 17 -94 35 -119 41 -25 5 -63 15 -85 20 -109 27 -196
40 -372 55 -63 6 -73 4 -73 -9z"/>
<path d="M5020 6508 c-30 -4 -73 -12 -95 -17 -22 -6 -62 -15 -90 -21 -73 -15
-294 -87 -338 -110 -22 -11 -45 -20 -53 -20 -8 0 -14 -4 -14 -10 0 -5 -9 -10
-20 -10 -11 0 -20 -3 -20 -7 0 -5 -25 -19 -55 -33 -30 -14 -55 -28 -55 -31 0
-3 -12 -11 -27 -18 -28 -13 -99 -58 -119 -76 -6 -5 -26 -21 -44 -35 -18 -14
-47 -40 -64 -59 -17 -19 -37 -40 -43 -47 -23 -22 -15 -34 20 -28 17 3 41 10
52 14 34 15 118 42 160 52 22 5 60 14 85 19 25 6 72 13 105 16 33 3 65 9 71
14 6 5 81 10 168 11 l157 2 -6 24 c-7 30 29 110 84 182 43 58 147 150 168 150
7 0 13 5 13 10 0 6 7 10 15 10 15 0 21 16 8 22 -5 2 -33 1 -63 -4z"/>
<path d="M5585 6193 c-100 -22 -108 -42 -35 -93 27 -19 49 -38 50 -42 0 -5 6
-8 13 -8 7 0 22 -8 33 -18 10 -10 47 -37 81 -60 88 -60 167 -138 159 -157 -5
-14 -27 -16 -163 -14 -90 1 -158 -2 -160 -7 -2 -6 13 -28 33 -49 20 -22 48
-56 63 -75 14 -19 33 -42 41 -50 19 -19 80 -111 80 -121 0 -16 -17 -16 -105 2
-49 9 -93 15 -97 13 -9 -6 0 -32 24 -66 27 -39 24 -68 -7 -68 -28 0 -32 -12
-10 -34 19 -18 20 -123 2 -184 -12 -40 -14 -42 -28 -25 -30 36 -62 150 -55
198 l7 45 -32 0 c-30 0 -31 1 -25 33 19 93 19 97 -2 97 -11 0 -50 -11 -86 -25
-37 -14 -72 -23 -77 -20 -12 8 -12 47 0 77 5 13 21 64 36 113 15 50 31 97 35
107 17 31 -13 42 -77 29 -31 -6 -101 -11 -155 -11 l-98 0 0 26 c0 33 33 92 78
139 6 8 12 16 12 19 0 6 25 38 55 70 32 34 65 83 65 98 0 8 -20 19 -45 27 -67
20 -258 3 -330 -30 -30 -13 -29 -13 40 -20 137 -13 215 -31 215 -49 0 -10 -24
-20 -72 -31 -21 -5 -55 -13 -75 -19 -21 -5 -60 -14 -88 -19 -53 -12 -237 -72
-245 -81 -5 -5 -13 -9 -89 -52 -20 -11 -38 -23 -41 -27 -3 -4 -21 -18 -40 -31
-19 -13 -37 -27 -40 -30 -3 -3 -24 -20 -47 -39 -43 -32 -56 -61 -29 -61 8 0
16 4 18 8 4 11 218 78 294 91 74 13 284 14 333 2 20 -6 74 -17 121 -27 134
-26 180 -42 174 -59 -4 -8 -14 -15 -24 -15 -11 0 -22 -4 -25 -10 -3 -5 -17
-10 -30 -10 -13 0 -37 -5 -52 -11 -15 -6 -38 -15 -50 -20 -56 -22 -80 -37
-118 -74 -43 -42 -68 -86 -60 -107 4 -10 40 -13 138 -13 122 0 192 -9 291 -38
50 -14 54 -29 17 -68 -43 -44 -41 -72 7 -92 20 -9 46 -17 57 -19 15 -2 22 -16
31 -53 6 -28 23 -76 38 -109 14 -32 26 -65 26 -72 0 -8 5 -14 10 -14 6 0 10
-6 10 -13 0 -8 7 -28 15 -45 22 -44 45 -32 45 23 0 24 5 47 10 50 6 3 10 26
10 50 0 24 5 47 10 50 6 3 10 37 10 74 l0 67 50 21 c77 33 76 48 -4 108 -32
24 -33 38 -3 57 23 15 36 19 147 43 68 15 211 22 228 11 6 -3 17 -4 25 0 12 4
13 11 4 35 -6 16 -15 29 -19 29 -4 0 -8 6 -8 13 -1 13 -70 67 -110 84 -86 36
-60 29 -258 69 -22 4 -32 11 -30 22 3 14 47 32 158 62 25 6 52 16 62 20 29 15
210 22 283 10 121 -19 135 -22 141 -31 3 -5 14 -9 25 -9 11 0 43 -10 70 -21
27 -12 53 -19 56 -15 4 4 -11 22 -32 41 -22 20 -49 43 -60 53 -70 62 -225 147
-336 183 -78 25 -222 53 -334 66 -47 5 -75 17 -75 32 0 8 50 31 67 31 7 0 21
4 31 9 9 5 46 16 81 23 l64 13 -39 12 c-37 11 -217 16 -259 6z"/>
<path d="M2867 5767 c-19 -42 -50 -154 -77 -275 -18 -81 -17 -444 3 -512 28
-100 100 -260 135 -298 6 -7 12 -17 12 -21 0 -4 11 -21 25 -37 14 -16 25 -33
25 -38 0 -13 182 -186 197 -186 7 0 13 -4 13 -8 0 -5 24 -19 53 -31 28 -13 59
-27 67 -31 31 -15 159 -29 320 -35 91 -3 216 -10 278 -16 62 -6 115 -9 118 -6
3 3 -83 94 -190 202 -108 109 -196 201 -196 205 0 4 -10 18 -21 31 -32 37
-119 167 -119 179 0 5 -4 10 -9 10 -5 0 -16 15 -25 33 -9 17 -24 46 -34 62
-10 17 -30 53 -46 80 -43 74 -117 187 -136 207 -9 10 -23 31 -31 46 -8 15 -22
36 -31 46 -10 11 -18 26 -18 33 0 7 -4 13 -8 13 -5 0 -21 21 -36 48 -59 104
-93 153 -146 212 -30 34 -62 72 -70 86 -22 36 -38 37 -53 1z"/>
<path d="M6435 4427 c-40 -24 -121 -113 -142 -157 -46 -94 -54 -297 -17 -406
17 -51 71 -114 97 -114 9 0 19 -4 22 -10 3 -6 49 -10 103 -10 130 0 199 25
228 82 21 41 30 201 16 305 -12 87 -59 243 -73 243 -5 0 -9 7 -9 15 0 8 -20
26 -43 40 -34 19 -57 25 -103 24 -32 0 -68 -6 -79 -12z m95 -86 c18 -17 30
-38 30 -54 0 -27 1 -27 -100 -41 -19 -2 -43 -7 -52 -11 -16 -6 -18 -1 -18 39
0 89 78 127 140 67z"/>
<path d="M4605 4254 c-11 -3 -31 -10 -45 -17 -31 -14 -129 -108 -130 -123 0
-6 -8 -26 -17 -44 -36 -74 -54 -254 -33 -350 17 -81 32 -134 42 -144 4 -6 8
-18 8 -28 0 -10 5 -18 10 -18 6 0 10 -5 10 -11 0 -13 57 -69 89 -87 27 -16
219 -18 235 -2 5 5 20 10 33 10 27 0 91 35 116 64 47 53 69 170 56 291 -6 50
-14 104 -20 121 -5 17 -9 40 -9 52 0 11 -4 24 -10 27 -5 3 -10 14 -10 24 0 21
-22 71 -32 71 -5 0 -8 7 -8 15 0 24 -94 125 -116 125 -7 0 -14 4 -16 10 -3 10
-122 21 -153 14z m88 -96 c44 -23 78 -82 62 -107 -3 -6 -18 -11 -33 -11 -15 0
-55 -6 -89 -13 l-63 -14 -6 32 c-7 39 19 105 40 105 9 0 16 5 16 10 0 14 46
13 73 -2z"/>
<path d="M6108 3391 c48 -31 43 -60 -15 -98 -55 -34 -93 -49 -144 -56 -19 -3
-55 -14 -80 -26 -56 -26 -130 -34 -153 -18 -9 7 -18 22 -19 35 0 12 -5 22 -10
22 -5 0 -4 7 3 15 8 9 8 15 2 15 -14 0 -52 -54 -52 -73 0 -9 -4 -19 -10 -22
-5 -3 -10 -26 -10 -50 0 -24 5 -47 10 -50 6 -3 10 -15 10 -26 0 -10 3 -19 8
-19 4 0 12 -10 17 -22 6 -12 19 -26 30 -32 11 -6 22 -13 25 -16 21 -23 179
-132 197 -136 16 -4 36 2 63 20 44 29 204 186 243 238 60 81 74 213 27 263
-13 14 -29 25 -36 25 -7 0 -14 4 -16 9 -1 4 -30 11 -63 15 l-60 7 33 -20z"/>
</g>
</svg>
